<?xml version="1.0" encoding="utf-8"?>
<!-- Generator: Adobe Illustrator 24.0.1, SVG Export Plug-In . SVG Version: 6.00 Build 0)  -->
<svg version="1.1" id="Layer_1" xmlns="http://www.w3.org/2000/svg" xmlns:xlink="http://www.w3.org/1999/xlink" x="0px" y="0px"
	  xml:space="preserve">
<style type="text/css">
	.st0{fill:#698BC7;}
	.st1{fill:#EF4B35;}
	.st2{opacity:0.19;}
	.st3{fill:#E58026;}
</style>
<g>
	<path class="st0" d="M281.82,166.2C281.81,166.21,281.81,166.21,281.82,166.2l0.73,0.29L281.82,166.2z"/>
</g>
<g>
	<path class="st1" d="M298.44,159.53l3.96,1.58v-0.15L298.44,159.53z M295.94,89.34l-1.94,0.78l-2.56,1.03l2.57-1.02h0L295.94,89.34
		L295.94,89.34z"/>
</g>
<g class="st2">
	<polygon points="282.55,166.5 281.81,166.21 281.82,166.2 	"/>
</g>
<path d="M295.05,170.81c-12.46,15.52-31.59,25.45-53.04,25.45c-37.55,0-67.99-30.44-67.99-67.99c0-2.47,0.13-4.9,0.39-7.3
	c0.45-4.24,1.29-8.35,2.49-12.32c8.42-27.99,34.39-48.38,65.12-48.38c21.43,0,40.54,9.91,53,25.4l-1.21,0.48l-2.86,1.14l-0.75,0.3
	l-8.91,3.57l-0.54,0.22c-9.96-10.83-24.24-17.61-40.12-17.61c-24.86,0-45.84,16.65-52.38,39.41c-1.15,3.99-1.85,8.18-2.05,12.49
	c-0.04,0.86-0.06,1.73-0.06,2.6c0,30.1,24.4,54.5,54.5,54.5c15.89,0,30.19-6.8,40.15-17.65l0.53,0.21l0.73,0.29L295.05,170.81z"/>
<g>
	<path class="st3" d="M254.37,116.91l-28.38,11.32l28.33,11.3l9.33,3.72l7.39,2.95l1.74,0.7l25.75,10.27l3.96,1.43v0.78
		c-1.84,3.57-3.99,6.96-6.41,10.13l-13.37-5.33l-0.07-0.03l-0.73-0.29c0,0,0,0,0,0l-25.55-10.31l-0.65-0.26l-1.24-0.5l-16.62-6.71
		l-28.11-11.35l-11.72-4.73v-3.7l11.51-4.61l28.31-11.35l16.64-6.67l22.75-9.12l4.65-1.87l8.91-3.57l0.33-0.13l0.43-0.17l2.56-1.03
		l1.94-0.78l0.01,0.01l1.31,2.06l5.14,8.12v0.56l-18.1,7.22l-13.33,5.32l-0.01,0l-9.62,3.84L254.37,116.91z"/>
	<path class="st3" d="M254.37,116.91l-28.38,11.32l28.33,11.3l9.33,3.72l7.39,2.95l1.74,0.7l25.75,10.27l3.96,1.58v0.63
		c-1.84,3.57-3.99,6.96-6.41,10.13l-13.37-5.33l-0.07-0.03l-0.73-0.29l-25.55-10.31l-0.65-0.26l-1.24-0.5l-16.62-6.71l-28.11-11.35
		l-11.72-4.73v-3.7l11.51-4.61l28.31-11.35l16.64-6.67l22.75-9.12l4.65-1.87l8.91-3.57l0.33-0.13l0.43-0.17l2.57-1.02h0l1.93-0.77
		l1.31,2.06l5.14,8.12v0.56l-18.1,7.22l-13.33,5.32l-0.01,0l-9.62,3.84L254.37,116.91z"/>
	<path class="st3" d="M310,128.27c0,0.84-0.01,1.67-0.05,2.5l-10.45,4.14l-26.3,10.43l-16.72-6.67l26.3-10.43l-26.25-10.47
		l15.07-6.01l0.01,0l1.6-0.64l16.43,6.59l9.79,3.93l10.53,4.22C309.99,126.66,310,127.46,310,128.27z"/>
</g>
</svg>
