import './App.scss';
<?xml version="1.0" encoding="utf-8"?>
<!-- Generator: Adobe Illustrator 24.0.1, SVG Export Plug-In . SVG Version: 6.00 Build 0)  -->
<!-- <svg version="1.1" id="Layer_1" xmlns="http://www.w3.org/2000/svg" xmlns:xlink="http://www.w3.org/1999/xlink" x="0px" y="0px"
	 viewBox="0 0 100% 50%" style="enable-background:new 0 0 500 250;"  xml:space="preserve"> -->


<svg version="1.1" id="Layer_1" xmlns="http://www.w3.org/2000/svg" xmlns:xlink="http://www.w3.org/1999/xlink"
     viewBox="0 0 470 350" style="width: 100%; height: 200px; max-width: 500px; " xml:space="preserve">





<style type="text/css">


	.st0{fill:#FFFFFF;
	width: 50%;
  	height: auto;	}
	.st1{
		fill:#E58026;}
	
	.svg-container {
  display: inline-block;
  position: relative;
  width: 100%;
  padding-bottom: 100%;
  vertical-align: middle;
  overflow: hidden;
}

.svg-container svg {
  position: absolute;
  top: 0;
  left: 0;
  width: 100%;
  height: 100%;
}







</style>
<g>
	<path class="st0 svg-container " d="M327.8,199.9c-21.9,27.3-55.6,44.8-93.3,44.8c-66.1,0-119.6-53.6-119.6-119.6c0-4.3,0.2-8.6,0.7-12.8
		c0.8-7.5,2.3-14.7,4.4-21.7c14.8-49.3,60.5-85.1,114.5-85.1c37.7,0,71.3,17.4,93.2,44.7l-2.1,0.8l-5,2l-1.3,0.5l-15.7,6.3l-1,0.4
		c-17.5-19.1-42.6-31-70.6-31c-43.7,0-80.6,29.3-92.2,69.3c-2,7-3.3,14.4-3.6,22c-0.1,1.5-0.1,3-0.1,4.6c0,53,42.9,95.9,95.9,95.9
		c28,0,53.1-12,70.6-31.1l0.9,0.4l1.3,0.5L327.8,199.9z"/>
	<g>
		<path class="st1" d="M256.2,105l-49.9,19.9l49.8,19.9l16.4,6.5l13,5.2l3.1,1.2l45.3,18.1l7,2.5v1.4c-3.2,6.3-7,12.2-11.3,17.8
			l-23.5-9.4l-0.1-0.1l-1.3-0.5l0,0l-44.9-18.1l-1.1-0.5l-2.2-0.9l-29.2-11.8l-49.5-20l-20.6-8.3v-6.5l20.2-8.1l49.8-20l29.3-11.7
			l40-16l8.2-3.3l15.7-6.3l0.6-0.2l0.8-0.3l4.5-1.8l3.4-1.4l0,0l2.3,3.6l9,14.3v1L309.1,84l-23.5,9.4h0l-16.9,6.8L256.2,105z"/>
		<path class="st1" d="M256.2,105l-49.9,19.9l49.8,19.9l16.4,6.5l13,5.2l3.1,1.2l45.3,18.1l7,2.8v1.1c-3.2,6.3-7,12.2-11.3,17.8
			l-23.5-9.4l-0.1-0.1l-1.3-0.5l-44.9-18.1l-1.1-0.5l-2.2-0.9l-29.2-11.8l-49.5-20l-20.6-8.3v-6.5l20.2-8.1l49.8-20l29.3-11.7l40-16
			l8.2-3.3l15.7-6.3l0.6-0.2l0.8-0.3l4.5-1.8l0,0l3.4-1.4l2.3,3.6l9,14.3v1L309,84l-23.5,9.4h0l-16.9,6.8L256.2,105z"/>
		<path class="st1" d="M354.1,125c0,1.5,0,2.9-0.1,4.4l-18.4,7.3L289.3,155l-29.4-11.7l46.3-18.3L260,106.5L286.5,96h0l2.8-1.1
			l28.9,11.6l17.2,6.9l18.5,7.4C354.1,122.2,354.1,123.6,354.1,125z"/>
	</g>
</g>
</svg>
